<?xml version="1.0" encoding="UTF-8"?>
<svg width="2000" height="2000" viewBox="0 0 2 2" xmlns="http://www.w3.org/2000/svg">
  <path d="M0,0 L1,0" stroke="black" stroke-width="0.001" fill="none"/>
  <path d="M0,0.02 L1,0.02" stroke="black" stroke-width="0.001" fill="none"/>
  <path d="M0,0.04 L1,0.04" stroke="black" stroke-width="0.001" fill="none"/>
  <path d="M0,0.06 L1,0.06" stroke="black" stroke-width="0.001" fill="none"/>
  <path d="M0,0.08 L1,0.08" stroke="black" stroke-width="0.001" fill="none"/>
  <path d="M0,0.1 L1,0.1" stroke="black" stroke-width="0.001" fill="none"/>
  <path d="M0,0.12 L1,0.12" stroke="black" stroke-width="0.001" fill="none"/>
  <path d="M0,0.14 L1,0.14" stroke="black" stroke-width="0.001" fill="none"/>
  <path d="M0,0.16 L1,0.16" stroke="black" stroke-width="0.001" fill="none"/>
  <path d="M0,0.18 L1,0.18" stroke="black" stroke-width="0.001" fill="none"/>
  <path d="M0,0.2 L1,0.2" stroke="black" stroke-width="0.001" fill="none"/>
  <path d="M0,0.22 L1,0.22" stroke="black" stroke-width="0.001" fill="none"/>
  <path d="M0,0.24 L1,0.24" stroke="black" stroke-width="0.001" fill="none"/>
  <path d="M0,0.26 L1,0.26" stroke="black" stroke-width="0.001" fill="none"/>
  <path d="M0,0.28 L1,0.28" stroke="black" stroke-width="0.001" fill="none"/>
  <path d="M0,0.3 L1,0.3" stroke="black" stroke-width="0.001" fill="none"/>
  <path d="M0,0.32 L1,0.32" stroke="black" stroke-width="0.001" fill="none"/>
  <path d="M0,0.34 L1,0.34" stroke="black" stroke-width="0.001" fill="none"/>
  <path d="M0,0.36 L1,0.36" stroke="black" stroke-width="0.001" fill="none"/>
  <path d="M0,0.38 L1,0.38" stroke="black" stroke-width="0.001" fill="none"/>
  <path d="M0,0.4 L1,0.4" stroke="black" stroke-width="0.001" fill="none"/>
  <path d="M0,0.42 L1,0.42" stroke="black" stroke-width="0.001" fill="none"/>
  <path d="M0,0.44 L1,0.44" stroke="black" stroke-width="0.001" fill="none"/>
  <path d="M0,0.46 L1,0.46" stroke="black" stroke-width="0.001" fill="none"/>
  <path d="M0,0.48 L1,0.48" stroke="black" stroke-width="0.001" fill="none"/>
  <path d="M0,0.5 L1,0.5" stroke="black" stroke-width="0.001" fill="none"/>
  <path d="M0,0.52 L1,0.52" stroke="black" stroke-width="0.001" fill="none"/>
  <path d="M0,0.54 L1,0.54" stroke="black" stroke-width="0.001" fill="none"/>
  <path d="M0,0.56 L1,0.56" stroke="black" stroke-width="0.001" fill="none"/>
  <path d="M0,0.58 L1,0.58" stroke="black" stroke-width="0.001" fill="none"/>
  <path d="M0,0.6 L1,0.6" stroke="black" stroke-width="0.001" fill="none"/>
  <path d="M0,0.62 L1,0.62" stroke="black" stroke-width="0.001" fill="none"/>
  <path d="M0,0.64 L1,0.64" stroke="black" stroke-width="0.001" fill="none"/>
  <path d="M0,0.66 L1,0.66" stroke="black" stroke-width="0.001" fill="none"/>
  <path d="M0,0.68 L1,0.68" stroke="black" stroke-width="0.001" fill="none"/>
  <path d="M0,0.7 L1,0.7" stroke="black" stroke-width="0.001" fill="none"/>
  <path d="M0,0.72 L1,0.72" stroke="black" stroke-width="0.001" fill="none"/>
  <path d="M0,0.74 L1,0.74" stroke="black" stroke-width="0.001" fill="none"/>
  <path d="M0,0.76 L1,0.76" stroke="black" stroke-width="0.001" fill="none"/>
  <path d="M0,0.78 L1,0.78" stroke="black" stroke-width="0.001" fill="none"/>
  <path d="M0,0.8 L1,0.8" stroke="black" stroke-width="0.001" fill="none"/>
  <path d="M0,0.82 L1,0.82" stroke="black" stroke-width="0.001" fill="none"/>
  <path d="M0,0.84 L1,0.84" stroke="black" stroke-width="0.001" fill="none"/>
  <path d="M0,0.86 L1,0.86" stroke="black" stroke-width="0.001" fill="none"/>
  <path d="M0,0.88 L1,0.88" stroke="black" stroke-width="0.001" fill="none"/>
  <path d="M0,0.9 L1,0.9" stroke="black" stroke-width="0.001" fill="none"/>
  <path d="M0,0.92 L1,0.92" stroke="black" stroke-width="0.001" fill="none"/>
  <path d="M0,0.94 L1,0.94" stroke="black" stroke-width="0.001" fill="none"/>
  <path d="M0,0.96 L1,0.96" stroke="black" stroke-width="0.001" fill="none"/>
  <path d="M0,0.98 L1,0.98" stroke="black" stroke-width="0.001" fill="none"/>
  <path d="M0,0 L0,0.996812" stroke="black" stroke-width="0.001" fill="none"/>
  <path d="M0.02,0 L0.02,0.996812" stroke="black" stroke-width="0.001" fill="none"/>
  <path d="M0.04,0 L0.04,0.996812" stroke="black" stroke-width="0.001" fill="none"/>
  <path d="M0.06,0 L0.06,0.996812" stroke="black" stroke-width="0.001" fill="none"/>
  <path d="M0.08,0 L0.08,0.996812" stroke="black" stroke-width="0.001" fill="none"/>
  <path d="M0.1,0 L0.1,0.996812" stroke="black" stroke-width="0.001" fill="none"/>
  <path d="M0.12,0 L0.12,0.996812" stroke="black" stroke-width="0.001" fill="none"/>
  <path d="M0.14,0 L0.14,0.996812" stroke="black" stroke-width="0.001" fill="none"/>
  <path d="M0.16,0 L0.16,0.996812" stroke="black" stroke-width="0.001" fill="none"/>
  <path d="M0.18,0 L0.18,0.996812" stroke="black" stroke-width="0.001" fill="none"/>
  <path d="M0.2,0 L0.2,0.996812" stroke="black" stroke-width="0.001" fill="none"/>
  <path d="M0.22,0 L0.22,0.996812" stroke="black" stroke-width="0.001" fill="none"/>
  <path d="M0.24,0 L0.24,0.996812" stroke="black" stroke-width="0.001" fill="none"/>
  <path d="M0.26,0 L0.26,0.996812" stroke="black" stroke-width="0.001" fill="none"/>
  <path d="M0.28,0 L0.28,0.996812" stroke="black" stroke-width="0.001" fill="none"/>
  <path d="M0.3,0 L0.3,0.996812" stroke="black" stroke-width="0.001" fill="none"/>
  <path d="M0.32,0 L0.32,0.996812" stroke="black" stroke-width="0.001" fill="none"/>
  <path d="M0.34,0 L0.34,0.996812" stroke="black" stroke-width="0.001" fill="none"/>
  <path d="M0.36,0 L0.36,0.996812" stroke="black" stroke-width="0.001" fill="none"/>
  <path d="M0.38,0 L0.38,0.996812" stroke="black" stroke-width="0.001" fill="none"/>
  <path d="M0.4,0 L0.4,0.996812" stroke="black" stroke-width="0.001" fill="none"/>
  <path d="M0.42,0 L0.42,0.996812" stroke="black" stroke-width="0.001" fill="none"/>
  <path d="M0.44,0 L0.44,0.996812" stroke="black" stroke-width="0.001" fill="none"/>
  <path d="M0.46,0 L0.46,0.996812" stroke="black" stroke-width="0.001" fill="none"/>
  <path d="M0.48,0 L0.48,0.996812" stroke="black" stroke-width="0.001" fill="none"/>
  <path d="M0.5,0 L0.5,0.996812" stroke="black" stroke-width="0.001" fill="none"/>
  <path d="M0.52,0 L0.52,0.996812" stroke="black" stroke-width="0.001" fill="none"/>
  <path d="M0.54,0 L0.54,0.996812" stroke="black" stroke-width="0.001" fill="none"/>
  <path d="M0.56,0 L0.56,0.996812" stroke="black" stroke-width="0.001" fill="none"/>
  <path d="M0.58,0 L0.58,0.996812" stroke="black" stroke-width="0.001" fill="none"/>
  <path d="M0.6,0 L0.6,0.996812" stroke="black" stroke-width="0.001" fill="none"/>
  <path d="M0.62,0 L0.62,0.996812" stroke="black" stroke-width="0.001" fill="none"/>
  <path d="M0.64,0 L0.64,0.996812" stroke="black" stroke-width="0.001" fill="none"/>
  <path d="M0.66,0 L0.66,0.996812" stroke="black" stroke-width="0.001" fill="none"/>
  <path d="M0.68,0 L0.68,0.996812" stroke="black" stroke-width="0.001" fill="none"/>
  <path d="M0.7,0 L0.7,0.996812" stroke="black" stroke-width="0.001" fill="none"/>
  <path d="M0.72,0 L0.72,0.996812" stroke="black" stroke-width="0.001" fill="none"/>
  <path d="M0.74,0 L0.74,0.996812" stroke="black" stroke-width="0.001" fill="none"/>
  <path d="M0.76,0 L0.76,0.996812" stroke="black" stroke-width="0.001" fill="none"/>
  <path d="M0.78,0 L0.78,0.996812" stroke="black" stroke-width="0.001" fill="none"/>
  <path d="M0.8,0 L0.8,0.996812" stroke="black" stroke-width="0.001" fill="none"/>
  <path d="M0.82,0 L0.82,0.996812" stroke="black" stroke-width="0.001" fill="none"/>
  <path d="M0.84,0 L0.84,0.996812" stroke="black" stroke-width="0.001" fill="none"/>
  <path d="M0.86,0 L0.86,0.996812" stroke="black" stroke-width="0.001" fill="none"/>
  <path d="M0.88,0 L0.88,0.996812" stroke="black" stroke-width="0.001" fill="none"/>
  <path d="M0.9,0 L0.9,0.996812" stroke="black" stroke-width="0.001" fill="none"/>
  <path d="M0.92,0 L0.92,0.996812" stroke="black" stroke-width="0.001" fill="none"/>
  <path d="M0.94,0 L0.94,0.996812" stroke="black" stroke-width="0.001" fill="none"/>
  <path d="M0.96,0 L0.96,0.996812" stroke="black" stroke-width="0.001" fill="none"/>
  <path d="M0.98,0 L0.98,0.996812" stroke="black" stroke-width="0.001" fill="none"/>
</svg>
