<?xml version="1.0" encoding="UTF-8"?>
<svg width="2000" height="2000" viewBox="0 0 2 2" xmlns="http://www.w3.org/2000/svg">
  <path d="M0,0 L0,0.124601 L0.124601,0.124601 L0.124601,0 L0,0.249203 L0,0.373804 L0.124601,0.373804 L0.124601,0.249203 L0.249203,0.249203 L0.249203,0.373804 L0.373804,0.373804 L0.373804,0.249203 L0.249203,0 L0.249203,0.124601 L0.373804,0.124601 L0.373804,0 L0,0.498406 L0,0.623007 L0.124601,0.623007 L0.124601,0.498406 L0,0.747609 L0,0.87221 L0.124601,0.87221 L0.124601,0.747609 L0.249203,0.747609 L0.249203,0.87221 L0.373804,0.87221 L0.373804,0.747609 L0.249203,0.498406 L0.249203,0.623007 L0.373804,0.623007 L0.373804,0.498406 L0.498406,0.498406 L0.498406,0.623007 L0.623007,0.623007 L0.623007,0.498406 L0.498406,0.747609 L0.498406,0.87221 L0.623007,0.87221 L0.623007,0.747609 L0.747609,0.747609 L0.747609,0.87221 L0.87221,0.87221 L0.87221,0.747609 L0.747609,0.498406 L0.747609,0.623007 L0.87221,0.623007 L0.87221,0.498406 L0.498406,0 L0.498406,0.124601 L0.623007,0.124601 L0.623007,0 L0.498406,0.249203 L0.498406,0.373804 L0.623007,0.373804 L0.623007,0.249203 L0.747609,0.249203 L0.747609,0.373804 L0.87221,0.373804 L0.87221,0.249203 L0.747609,0 L0.747609,0.124601 L0.87221,0.124601 L0.87221,0" stroke="black" stroke-width="0.001" fill="none"/>
</svg>
